HIERARCHY
ROOT joint_0
{
	OFFSET 0.000000 0.000000 0.000000
	CHANNELS 6 Xposition Yposition Zposition Zrotation Yrotation Xrotation 
	JOINT joint_1
	{
		OFFSET 1.363060 -1.794630 0.839290
		CHANNELS 3 Zrotation Yrotation Xrotation
		JOINT joint_2
		{
			OFFSET 2.448110 -6.726130 0.000000
			CHANNELS 3 Zrotation Yrotation Xrotation
			JOINT joint_3
			{
				OFFSET 2.562200 -7.039590 0.000000
				CHANNELS 3 Zrotation Yrotation Xrotation
				JOINT joint_4
				{
					OFFSET 0.157640 -0.433110 2.322550
					CHANNELS 3 Zrotation Yrotation Xrotation
					End Site
					{
						OFFSET 0.000000 0.000000 0.000000
					}
				}
			}
		}
	}
	JOINT joint_5
	{
		OFFSET -1.305520 -1.794630 0.839290
		CHANNELS 3 Zrotation Yrotation Xrotation
		JOINT joint_6
		{
			OFFSET -2.542530 -6.985550 0.000000
			CHANNELS 3 Zrotation Yrotation Xrotation
			JOINT joint_7
			{
				OFFSET -2.568260 -7.056230 0.000000
				CHANNELS 3 Zrotation Yrotation Xrotation
				JOINT joint_8
				{
					OFFSET -0.164730 -0.452590 2.363150
					CHANNELS 3 Zrotation Yrotation Xrotation
					End Site
					{
						OFFSET 0.000000 0.000000 0.000000
					}
				}
			}
		}
	}
	JOINT joint_9
	{
		OFFSET 0.028270 2.035590 -0.193380
		CHANNELS 3 Zrotation Yrotation Xrotation
		JOINT joint_10
		{
			OFFSET 0.056720 4.548850 -0.042750
			CHANNELS 3 Zrotation Yrotation Xrotation
			JOINT joint_11
			{
				OFFSET -0.054170 1.746240 0.172020
				CHANNELS 3 Zrotation Yrotation Xrotation
				JOINT joint_12
				{
					OFFSET 0.104070 1.761360 -0.123970
					CHANNELS 3 Zrotation Yrotation Xrotation
					End Site
					{
						OFFSET 0.000000 0.000000 0.000000
					}
				}
			}
			JOINT joint_13
			{
				OFFSET 3.362410 1.200890 -0.311210
				CHANNELS 3 Zrotation Yrotation Xrotation
				JOINT joint_14
				{
					OFFSET 5.783000 0.000000 0.000000
					CHANNELS 3 Zrotation Yrotation Xrotation
					JOINT joint_15
					{
						OFFSET 6.683559 0.000000 0.000000
						CHANNELS 3 Zrotation Yrotation Xrotation
						JOINT joint_16
						{
							OFFSET 0.000000 0.000000 0.000000
							CHANNELS 3 Zrotation Yrotation Xrotation
							End Site
							{
								OFFSET 0.000000 0.000000 0.000000
							}
						}
					}
				}
			}
			JOINT joint_17
			{
				OFFSET -2.136613 1.374050 -0.404650
				CHANNELS 3 Zrotation Yrotation Xrotation
				JOINT joint_18
				{
					OFFSET -0.741900 0.000000 0.000000
					CHANNELS 3 Zrotation Yrotation Xrotation
					JOINT joint_19
					{
						OFFSET -0.744170 0.000000 0.000000
						CHANNELS 3 Zrotation Yrotation Xrotation
						JOINT joint_20
						{
							OFFSET 0.000000 0.000000 0.000000
							CHANNELS 3 Zrotation Yrotation Xrotation
							End Site
							{
								OFFSET 0.000000 0.000000 0.000000
							}
						}
					}
				}
			}
		}
	}
}
MOTION
Frames: 12
Frame Time: 0.031667
-9.504039 13.213994 1.398569 -12.802456 78.930977 -3.364663 -4.349011 7.651891 -50.410430 -11.861721 20.629015 36.826577 7.815536 6.729257 4.634141 0.891439 1.703327 6.301091 3.024089 -13.068840 -20.547772 0.517456 -21.118899 69.335668 -10.425227 -2.123680 -3.708952 -8.654853 -7.864066 25.471876 0.751871 -1.514435 -6.701090 -5.744611 -3.909431 27.596538 3.805884 2.976423 17.015007 5.023164 -1.743314 -28.078846 -75.821097 -74.039428 13.784444 26.511460 -40.195445 -14.964330 7.409869 -1.494716 -4.588462 -7.033395 -0.000603 -0.005814 56.495944 74.804519 43.487818 -41.231229 38.309104 -28.143735 -11.620655 -0.178163 3.955094 6.999573 0.011961 0.042049 
-9.044865 13.234505 1.380784 -15.252708 78.662460 -5.019760 -4.383640 7.907044 -52.328395 -11.971563 21.440158 39.501590 7.016579 6.244845 4.071909 1.107197 1.917818 6.736079 2.899451 -12.706947 -19.902271 0.769253 -21.298283 69.780491 -6.166129 -1.146087 -5.159888 -7.992785 -7.031365 22.127151 0.424566 -0.910576 -6.875266 -5.509155 -3.505005 27.506931 4.344852 3.012562 17.299305 5.787005 -1.363583 -27.898191 -79.180641 -73.930548 17.104865 26.647647 -39.593381 -15.221129 7.256145 -1.399835 -3.506426 -7.041625 -0.002978 -0.008084 57.959346 72.132364 44.165332 -41.864340 37.730129 -28.857317 -11.689711 -0.259954 3.102310 7.012027 0.010787 0.037857 
-8.582102 13.253814 1.375227 -16.009581 78.725639 -5.274573 -4.425902 8.353204 -53.819681 -12.027650 22.105807 41.599291 2.467261 5.378736 3.608514 1.283601 2.223836 7.380211 2.705861 -12.302785 -19.204211 1.153440 -21.312137 69.779842 -1.507487 -0.284672 -4.990985 -6.840414 -6.590621 19.340661 0.485112 -0.326695 -6.892717 -4.963620 -3.428902 27.092210 4.412730 3.359330 17.693023 6.599956 -1.028713 -27.761640 -82.469958 -73.627971 22.671175 26.325132 -39.160640 -14.907024 6.824450 -0.966316 -2.776261 -7.044148 -0.006231 -0.009908 61.723388 69.245762 47.081378 -41.992703 37.717520 -29.084011 -11.606179 -0.282641 3.035127 7.018721 0.010085 0.033631 
-8.108243 13.300405 1.390545 -14.743326 79.047958 -3.570675 -4.506732 9.023547 -55.051195 -11.941968 22.511282 43.513926 -4.117904 4.372288 3.337821 1.392772 2.537044 7.992405 2.140144 -11.947289 -18.717710 1.583426 -21.591471 69.378008 -1.055818 -0.220015 -4.289643 -5.159806 -6.908011 18.239527 0.328430 0.002034 -6.924615 -4.559970 -3.543750 27.162733 4.019040 3.772829 18.029135 7.448968 -0.726946 -27.606308 -83.936516 -73.279488 27.826537 25.318248 -38.553436 -14.071619 6.440053 -0.576352 -2.029439 -7.038541 -0.010155 -0.011169 65.115253 66.359584 49.185528 -41.827255 38.016146 -28.964141 -11.528511 -0.364444 2.528156 7.017260 0.009543 0.030463 
-7.625435 13.354099 1.398971 -12.545284 79.557106 -1.045868 -4.396367 9.611199 -55.860456 -11.816812 22.892689 45.011012 -12.090274 3.537465 3.053546 1.453489 2.756454 8.297778 1.926241 -11.397319 -18.267949 2.394297 -21.806233 69.386471 -0.247427 -0.927277 -2.986816 -3.142369 -8.543905 20.567948 0.004450 0.327634 -6.981985 -4.523594 -3.542667 27.256092 3.413422 4.368849 17.628547 8.370760 -0.483042 -27.318846 -82.575703 -72.478470 30.202413 24.181740 -38.023424 -13.071448 6.560543 -0.263812 -1.670362 -7.026532 -0.014349 -0.012002 67.167589 63.666058 50.184815 -41.044751 38.517885 -28.349122 -11.496233 -0.628593 1.382655 7.010971 0.008603 0.031121 
-7.136471 13.432327 1.396847 -12.834898 80.075310 -0.522212 -4.298450 10.232388 -55.943542 -11.789417 23.245043 46.325741 -19.027780 2.908096 3.547127 1.538352 2.774283 8.007138 1.603792 -10.703265 -18.133287 2.640914 -22.193588 69.822305 0.145504 -2.380590 -1.075758 -1.213773 -11.954123 27.845467 0.380330 0.401099 -6.977653 -4.314809 -3.241276 27.728734 2.791622 4.764340 17.135620 9.528000 -0.332048 -26.966284 -80.981899 -71.754573 33.544415 23.085001 -37.592231 -12.294282 6.609546 0.005828 -1.195364 -7.011569 -0.019451 -0.013387 68.711075 60.971357 50.397920 -40.480612 39.128306 -27.856757 -11.416329 -0.756127 -0.494748 7.002733 0.006474 0.036095 
-6.670526 13.501952 1.377144 -15.472880 80.590347 -2.654320 -4.531126 10.715925 -55.619627 -11.867165 23.562042 47.655268 -23.330669 2.249781 4.647646 1.705177 2.602076 7.160953 1.421669 -9.985138 -17.851922 2.719170 -22.214839 70.851103 0.488510 -3.810766 0.931570 0.499101 -15.937939 36.736637 0.311841 0.370588 -7.392338 -4.181781 -3.267913 28.012260 2.766464 5.361053 16.795908 10.990749 -0.270924 -26.601201 -79.842869 -70.638431 37.609132 22.400253 -37.235777 -11.567527 6.550638 0.476208 -0.835949 -7.000239 -0.025140 -0.015275 68.888263 58.458100 50.133285 -40.307887 39.634553 -27.173013 -11.691667 -1.011726 -1.898905 6.997802 0.004085 0.041542 
-6.211817 13.555721 1.369746 -18.887506 81.359276 -5.776923 -4.517914 11.091771 -55.557571 -12.458699 23.717130 49.222633 -23.849550 1.401897 7.109419 1.997596 2.317877 5.998252 1.415756 -8.781155 -18.172046 3.191690 -22.417162 72.004530 0.762979 -5.093245 2.780916 1.876951 -19.868771 45.660426 0.477334 0.775216 -7.787818 -3.890342 -3.212312 28.503136 1.964907 5.388230 16.596557 12.433579 -0.313587 -26.189647 -76.415753 -69.298348 33.723731 22.029196 -36.846255 -11.256837 6.378333 0.779699 -0.474212 -6.994495 -0.029340 -0.016826 68.657171 56.447948 49.380659 -40.886855 40.000501 -27.044221 -12.317205 -1.229682 0.322506 6.997609 0.002214 0.044872 
-5.754084 13.606577 1.388607 -22.488663 82.385277 -9.056768 -6.059907 11.698130 -56.373004 -12.730722 23.716010 50.319991 -20.472749 1.044786 10.271716 2.398299 1.973490 4.688933 1.590926 -7.725460 -18.451012 3.511109 -22.588966 72.721195 0.891143 -6.609310 3.917995 2.940783 -23.306904 53.529043 0.445600 1.218933 -8.079707 -4.189227 -3.324875 28.510997 1.317945 5.102173 16.103266 13.856532 -0.446669 -25.748992 -73.605738 -68.144579 32.626133 22.253328 -36.183518 -11.810279 6.297200 1.082583 -0.441132 -6.991174 -0.031658 -0.017220 67.895133 55.052079 48.957437 -41.425722 39.884760 -27.337381 -12.579719 -1.494415 3.824155 6.997933 0.001646 0.045290 
-5.301321 13.663393 1.430833 -25.437986 83.286415 -11.655134 -9.306760 12.200512 -58.747803 -12.648880 23.630385 51.114339 -13.209629 1.569911 6.201000 2.834215 1.673106 3.566392 1.943307 -6.503220 -18.928524 3.364100 -22.770071 73.736612 1.066517 -7.217247 4.809458 3.743856 -25.811544 59.250067 0.519689 1.187788 -7.973285 -4.349521 -3.168770 28.273618 0.760445 4.866144 15.649855 15.489856 -0.620956 -25.217733 -73.135562 -67.695808 33.549001 22.832071 -34.989430 -12.766179 6.062368 1.519379 0.376982 -6.992496 -0.032466 -0.016988 67.578500 54.273940 49.677673 -41.748739 39.617505 -27.484922 -12.472242 -1.375736 4.966339 7.000316 0.001921 0.044704 
-4.854264 13.730706 1.477207 -27.362179 84.278252 -13.071217 -11.639156 12.119752 -60.623571 -11.902154 23.410738 51.854506 -8.650368 1.999508 0.704979 3.292268 1.409503 2.556726 1.877450 -5.220198 -19.625307 2.823328 -23.122967 75.302467 1.434286 -7.204239 4.666735 4.348509 -27.263515 62.464566 0.588607 1.227809 -8.307985 -4.389456 -3.176997 28.384646 -0.216644 4.584044 14.930208 17.289514 -0.795230 -24.527390 -74.200204 -67.992621 35.290396 23.586267 -33.724926 -13.607853 5.812265 1.827564 1.777741 -6.998412 -0.031163 -0.016522 66.867975 54.122539 50.385281 -42.414727 39.354324 -27.552978 -12.080171 -1.287907 3.505366 7.005877 0.001927 0.044874 
-4.434174 13.791907 1.522553 -32.812950 85.215744 -18.129774 -12.597766 11.707666 -60.490662 -11.505851 23.112653 52.432114 -6.430507 2.587674 -2.482074 3.754931 1.150955 1.576198 2.191986 -4.307980 -20.885282 2.752615 -23.585646 76.515262 1.794572 -6.705097 4.279266 4.812216 -27.465702 62.491054 0.014761 1.316249 -8.163141 -4.331400 -3.548553 28.242410 -0.803818 3.856787 14.805313 19.093722 -1.075725 -23.837154 -75.740862 -68.610220 37.153316 24.133575 -33.024265 -14.422257 5.886268 2.012746 3.011319 -7.000899 -0.029806 -0.015559 66.151434 54.813276 50.739734 -42.383076 39.220661 -27.732291 -11.908678 -1.264853 2.143966 7.006814 0.002901 0.044809 
